<?xml version="1.0" encoding="UTF-8" standalone="no"?>
<!-- Created with Inkscape (http://www.inkscape.org/) -->

<svg
   width="210mm"
   height="297mm"
   viewBox="0 0 210 297"
   version="1.1"
   id="svg1"
   inkscape:version="1.4.2 (ebf0e940d0, 2025-05-08)"
   sodipodi:docname="f1.svg"
   xmlns:inkscape="http://www.inkscape.org/namespaces/inkscape"
   xmlns:sodipodi="http://sodipodi.sourceforge.net/DTD/sodipodi-0.dtd"
   xmlns="http://www.w3.org/2000/svg"
   xmlns:svg="http://www.w3.org/2000/svg">
  <sodipodi:namedview
     id="namedview1"
     pagecolor="#ffffff"
     bordercolor="#000000"
     borderopacity="0.25"
     inkscape:showpageshadow="2"
     inkscape:pageopacity="0.0"
     inkscape:pagecheckerboard="0"
     inkscape:deskcolor="#d1d1d1"
     inkscape:document-units="mm"
     showguides="true"
     inkscape:zoom="224.76175"
     inkscape:cx="252.22263"
     inkscape:cy="415.35314"
     inkscape:window-width="1920"
     inkscape:window-height="1004"
     inkscape:window-x="0"
     inkscape:window-y="0"
     inkscape:window-maximized="1"
     inkscape:current-layer="layer1">
    <sodipodi:guide
       position="66.460147,187.94704"
       orientation="0.83705937,-0.54711207"
       id="guide5"
       inkscape:locked="false" />
  </sodipodi:namedview>
  <defs
     id="defs1">
    <inkscape:path-effect
       effect="fillet_chamfer"
       id="path-effect21"
       is_visible="true"
       lpeversion="1"
       nodesatellites_param="F,0,0,1,0,0,0,1 @ F,0,0,1,0,0,0,1 @ F,0,0,1,0,0,0,1 @ F,0,0,1,0,0,0,1 @ F,0,0,1,0,0,0,1 @ F,0,0,1,0,0,0,1 @ F,0,0,1,0,0,0,1 @ F,0,0,1,0,0,0,1 @ F,0,0,1,0,0,0,1 @ F,0,0,1,0,0,0,1 @ F,0,0,1,0,0,0,1 @ F,0,0,1,0,0,0,1 @ F,0,0,1,0,0,0,1 @ F,0,0,1,0,0,0,1 @ F,0,0,1,0,0,0,1"
       radius="0"
       unit="px"
       method="auto"
       mode="F"
       chamfer_steps="1"
       flexible="false"
       use_knot_distance="true"
       apply_no_radius="true"
       apply_with_radius="true"
       only_selected="false"
       hide_knots="false" />
  </defs>
  <g
     inkscape:label="Capa 1"
     inkscape:groupmode="layer"
     id="layer1">
    <path
       id="rect17"
       style="fill:#ff0000;fill-opacity:1;stroke-width:0.144596;stroke-linecap:round;stroke-linejoin:round;paint-order:stroke fill markers"
       d="M -138.93926 -130.9879 L -138.93923 -131.14841 L -138.68498 -131.14841 L -138.68513 -131.30831 L -138.93938 -131.30831 L -138.93935 -131.46882 L -138.6851 -131.46882 L -138.68507 -131.62933 L -139.19408 -131.62933 L -139.44833 -131.62933 L -139.44836 -131.46882 L -139.1936 -131.46882 L -139.19363 -131.30831 L -139.194 -131.14841 L -139.19351 -130.9879 L -138.93926 -130.9879 z "
       transform="matrix(-1,0,0.54711414,-0.83705801,0,0)" />
    <rect
       style="fill:#3e2723;fill-opacity:1;stroke-width:0.144596;stroke-linecap:round;stroke-linejoin:round;paint-order:stroke fill markers"
       id="rect2"
       width="0.25439236"
       height="0.1602478"
       x="137.48447"
       y="130.20447"
       transform="matrix(1,0,-0.54711414,0.83705801,0,0)" />
    <rect
       style="fill:#3e2723;fill-opacity:1;stroke-width:0.144596;stroke-linecap:round;stroke-linejoin:round;paint-order:stroke fill markers"
       id="rect3"
       width="0.50878143"
       height="0.16025414"
       x="137.48447"
       y="130.04424"
       transform="matrix(1,0,-0.54711414,0.83705801,0,0)" />
    <rect
       style="fill:#3e2723;fill-opacity:1;stroke-width:0.144596;stroke-linecap:round;stroke-linejoin:round;paint-order:stroke fill markers"
       id="rect4"
       width="0.25439453"
       height="0.1602478"
       x="137.48447"
       y="129.88399"
       transform="matrix(1,0,-0.54711414,0.83705801,0,0)" />
    <rect
       style="fill:#3e2723;fill-opacity:1;stroke-width:0.144596;stroke-linecap:round;stroke-linejoin:round;paint-order:stroke fill markers"
       id="rect5"
       width="0.50878143"
       height="0.16025414"
       x="137.48447"
       y="129.72372"
       transform="matrix(1,0,-0.54711414,0.83705801,0,0)" />
    <rect
       style="fill:#3e2723;fill-opacity:1;stroke-width:0.144596;stroke-linecap:round;stroke-linejoin:round;paint-order:stroke fill markers"
       id="rect6"
       width="0.25439236"
       height="0.1602478"
       x="137.23007"
       y="129.72374"
       transform="matrix(1,0,-0.54711414,0.83705801,0,0)" />
    <rect
       style="fill:#3e2723;fill-opacity:1;stroke-width:0.144596;stroke-linecap:round;stroke-linejoin:round;paint-order:stroke fill markers"
       id="rect7"
       width="0.25439236"
       height="0.1602478"
       x="-138.50204"
       y="-129.88397"
       transform="matrix(-1,0,0.54711414,-0.83705801,0,0)" />
    <rect
       style="fill:#3e2723;fill-opacity:1;stroke-width:0.144596;stroke-linecap:round;stroke-linejoin:round;paint-order:stroke fill markers"
       id="rect8"
       width="0.50878143"
       height="0.16025414"
       x="-138.50204"
       y="-130.0442"
       transform="matrix(-1,0,0.54711414,-0.83705801,0,0)" />
    <rect
       style="fill:#3e2723;fill-opacity:1;stroke-width:0.144596;stroke-linecap:round;stroke-linejoin:round;paint-order:stroke fill markers"
       id="rect9"
       width="0.25439453"
       height="0.1602478"
       x="-138.50204"
       y="-130.20445"
       transform="matrix(-1,0,0.54711414,-0.83705801,0,0)" />
    <rect
       style="fill:#3e2723;fill-opacity:1;stroke-width:0.144596;stroke-linecap:round;stroke-linejoin:round;paint-order:stroke fill markers"
       id="rect10"
       width="0.50878143"
       height="0.16025414"
       x="-138.50204"
       y="-130.36472"
       transform="matrix(-1,0,0.54711414,-0.83705801,0,0)" />
    <rect
       style="fill:#3e2723;fill-opacity:1;stroke-width:0.144596;stroke-linecap:round;stroke-linejoin:round;paint-order:stroke fill markers"
       id="rect11"
       width="0.25439236"
       height="0.1602478"
       x="-138.75644"
       y="-130.3647"
       transform="matrix(-1,0,0.54711414,-0.83705801,0,0)" />
    <path
       id="rect12"
       style="fill:#000000;fill-opacity:1;stroke-width:0.144596;stroke-linecap:round;stroke-linejoin:round;paint-order:stroke fill markers"
       d="m 137.92175,130.9879 -3e-5,0.16051 h 0.25477 l -3.7e-4,0.1599 -3e-5,0.16051 4.8e-4,0.16051 h 0.25425 l 3e-5,-0.16051 h 0.25425 l -4.9e-4,-0.16051 h -0.25424 l 3.6e-4,-0.1599 h 0.25425 l 3e-5,-0.16051 H 138.176 Z"
       transform="matrix(1,0,-0.54711414,0.83705801,0,0)"
       inkscape:path-effect="#path-effect21"
       inkscape:original-d="m 137.92175,130.9879 -3e-5,0.16051 h 0.25477 l -3.7e-4,0.1599 -3e-5,0.16051 4.8e-4,0.16051 h 0.25425 l 3e-5,-0.16051 h 0.25425 l -4.9e-4,-0.16051 h -0.25424 l 3.6e-4,-0.1599 h 0.25425 l 3e-5,-0.16051 H 138.176 Z" />
  </g>
</svg>
